<?xml version="1.0" encoding="UTF-8" standalone="no"?>
<!-- Created with Inkscape (http://www.inkscape.org/) -->

<svg
   xmlns:dc="http://purl.org/dc/elements/1.1/"
   xmlns:cc="http://creativecommons.org/ns#"
   xmlns:rdf="http://www.w3.org/1999/02/22-rdf-syntax-ns#"
   xmlns:svg="http://www.w3.org/2000/svg"
   xmlns="http://www.w3.org/2000/svg"
   xmlns:sodipodi="http://sodipodi.sourceforge.net/DTD/sodipodi-0.dtd"
   xmlns:inkscape="http://www.inkscape.org/namespaces/inkscape"
   width="744.09448819"
   height="1052.3622047"
   id="svg3716"
   version="1.1"
   inkscape:version="0.47 r22583"
   sodipodi:docname="icons.svg"
   inkscape:export-filename="/home/bigml/web/moon/dida/fly/img/modules/miniicon/icons.png"
   inkscape:export-xdpi="90"
   inkscape:export-ydpi="90">
  <defs
     id="defs3718">
    <inkscape:perspective
       sodipodi:type="inkscape:persp3d"
       inkscape:vp_x="0 : 526.18109 : 1"
       inkscape:vp_y="0 : 1000 : 0"
       inkscape:vp_z="744.09448 : 526.18109 : 1"
       inkscape:persp3d-origin="372.04724 : 350.78739 : 1"
       id="perspective3724" />
    <inkscape:perspective
       id="perspective3734"
       inkscape:persp3d-origin="0.5 : 0.33333333 : 1"
       inkscape:vp_z="1 : 0.5 : 1"
       inkscape:vp_y="0 : 1000 : 0"
       inkscape:vp_x="0 : 0.5 : 1"
       sodipodi:type="inkscape:persp3d" />
    <inkscape:perspective
       id="perspective4593"
       inkscape:persp3d-origin="0.5 : 0.33333333 : 1"
       inkscape:vp_z="1 : 0.5 : 1"
       inkscape:vp_y="0 : 1000 : 0"
       inkscape:vp_x="0 : 0.5 : 1"
       sodipodi:type="inkscape:persp3d" />
  </defs>
  <sodipodi:namedview
     id="base"
     pagecolor="#ffffff"
     bordercolor="#666666"
     borderopacity="1.0"
     inkscape:pageopacity="0.0"
     inkscape:pageshadow="2"
     inkscape:zoom="1"
     inkscape:cx="157.359"
     inkscape:cy="517.59303"
     inkscape:document-units="px"
     inkscape:current-layer="layer1"
     showgrid="false"
     inkscape:window-width="1440"
     inkscape:window-height="828"
     inkscape:window-x="0"
     inkscape:window-y="0"
     inkscape:window-maximized="0" />
  <metadata
     id="metadata3721">
    <rdf:RDF>
      <cc:Work
         rdf:about="">
        <dc:format>image/svg+xml</dc:format>
        <dc:type
           rdf:resource="http://purl.org/dc/dcmitype/StillImage" />
        <dc:title></dc:title>
      </cc:Work>
    </rdf:RDF>
  </metadata>
  <g
     inkscape:label="Layer 1"
     inkscape:groupmode="layer"
     id="layer1">
    <g
       id="g7442"
       transform="matrix(0.22499689,0,0,0.29013387,38.201435,364.56221)"
       inkscape:export-filename="/home/bigml/web/moon/dida/fly/img/modules/miniicon/icons.png"
       inkscape:export-xdpi="90"
       inkscape:export-ydpi="90">
      <path
         id="path7444"
         d="m 441.26594,506.84045 c -8.441,0.0965 -16.98246,0.1954 -25.26719,1.96343 -2.80031,1.50361 -3.6686,4.96534 -5.01457,7.63521 -1.65436,3.95521 -3.2949,8.02386 -5.92824,11.42079 -1.23246,4.73799 -0.72698,9.73334 -0.70702,14.58155 -0.21808,2.94899 1.27818,5.39655 3.10018,7.52289 1.68844,3.5042 0.23247,7.6239 1.66153,11.17644 2.91116,0.97649 6.03824,0.20936 9.04468,0.12878 0.187,-3.94921 0.39087,-7.89754 0.61157,-11.845 14.38781,0 28.77562,0 43.16343,0 0,4.12 0,8.24 0,12.36 3.09001,0 6.18002,0 9.27004,0 0.17082,-3.92285 -0.53094,-8.02364 0.89066,-11.77122 1.8243,-2.1708 3.40208,-4.62891 3.1487,-7.63646 0.12352,-5.87913 0.61934,-12.2268 -2.59028,-17.46973 -2.43532,-4.36884 -4.19407,-9.06296 -6.21275,-13.61765 -1.94062,-3.09636 -6.09329,-2.89771 -9.29699,-3.42125 -5.27616,-0.54198 -10.56363,-1.0539 -15.87375,-1.02778 z m -1.48063,4.98909 c 6.38282,0.099 12.81541,-0.11165 19.15157,0.74028 3.51905,1.14183 4.27093,5.33924 5.57194,8.33787 0.53729,1.7774 2.62401,5.41132 -0.89028,4.22981 -6.8366,-0.73213 -13.69728,-1.22646 -20.57822,-1.1361 -8.99046,0.076 -18.02183,0.0334 -26.96039,1.09672 -4.78921,1.77324 -0.92372,-4.40138 -0.37087,-6.44486 1.10459,-2.88141 2.95333,-6.47768 6.56511,-6.33412 5.82244,-0.45936 11.67383,-0.45929 17.51114,-0.4896 z m -24.81656,19.11937 c 3.04028,-0.41137 7.45056,0.58025 6.79156,4.5706 0,1.20168 0,2.40335 0,3.60503 -4.84958,0 -9.69917,0 -14.54875,0 0.2755,-2.25088 0.16043,-4.58486 0.82378,-6.76172 1.59259,-1.84003 4.75918,-1.03775 6.93341,-1.41391 z m 49.05375,0.0644 c 2.56774,0.0344 5.12866,0.25661 7.69285,0.38625 0,2.40333 0,4.80666 0,7.21 -4.63576,0.18708 -9.27077,0.39095 -13.90504,0.61156 0.11577,-2.60868 -0.65734,-6.13829 2.19729,-7.5263 1.25314,-0.57133 2.65752,-0.65534 4.0149,-0.68151 z"
         style="fill:#ffffff;fill-opacity:1;stroke:none" />
      <path
         sodipodi:nodetypes="cccccc"
         id="path7446"
         d="m 464.03091,532.15954 c 2.49295,0.0334 4.97928,0.24914 7.46878,0.375 0,2.33333 0,4.66666 0,7 -4.50073,0.18163 -9.00074,0.37956 -13.50003,0.59375 0.11239,-2.5327 -0.6382,-5.95951 2.13329,-7.30709 1.21664,-0.55469 2.58011,-0.63625 3.89796,-0.66166 z"
         style="fill:#ffffff;fill-opacity:1;stroke:none" />
      <path
         sodipodi:nodetypes="cccccc"
         id="path7448"
         d="m 416.40592,532.09703 c 2.95173,-0.39939 7.23355,0.56334 6.59375,4.43747 0,1.16668 0,2.33335 0,3.50003 -4.70833,0 -9.41667,0 -14.125,0 0.26747,-2.18532 0.15575,-4.45132 0.79978,-6.56478 1.54621,-1.78643 4.62057,-1.00752 6.73147,-1.37272 z"
         style="fill:#ffffff;fill-opacity:1;stroke:none" />
      <path
         id="path7450"
         d="m 441.93717,508.69076 c -8.19514,0.0937 -16.48782,0.18971 -24.53125,1.90625 -2.71875,1.45981 -3.56175,4.82071 -4.86852,7.41282 -1.60617,3.84001 -3.19893,7.79016 -5.75557,11.08815 -1.19656,4.59999 -0.7058,9.44984 -0.68643,14.15684 -0.21172,2.8631 1.24096,5.23937 3.00989,7.30378 1.63926,3.40213 0.2257,7.40184 1.61313,10.85091 2.82637,0.94805 5.86237,0.20326 8.78125,0.12503 0.18155,-3.83418 0.37948,-7.66751 0.59375,-11.5 13.96875,0 27.9375,0 41.90625,0 0,4 0,8 0,12 3.00001,0 6.00002,0 9.00003,0 0.16585,-3.80859 -0.51547,-7.78994 0.86472,-11.42837 1.77117,-2.10757 3.30299,-4.49409 3.05699,-7.41404 0.11993,-5.70789 0.6013,-11.87068 -2.51483,-16.9609 -2.36439,-4.24159 -4.07191,-8.79899 -6.0318,-13.22102 -1.88409,-3.00617 -5.91581,-2.81331 -9.0262,-3.3216 -5.12249,-0.5262 -10.25595,-1.02321 -15.41141,-0.99785 z m -1.4375,4.84378 c 6.19691,0.0961 12.44214,-0.1084 18.59375,0.71872 3.41656,1.10857 4.14654,5.18373 5.40965,8.09502 0.52164,1.72563 2.54759,5.25371 -0.86435,4.10661 -6.63747,-0.71081 -13.29833,-1.19074 -19.97885,-1.10301 -8.7286,0.0737 -17.49692,0.0324 -26.17514,1.06478 -4.64971,1.72159 -0.89681,-4.27319 -0.36006,-6.25715 1.07241,-2.79748 2.86731,-6.28901 6.37389,-6.14963 5.65285,-0.44598 11.33381,-0.44591 17.00111,-0.47534 z m -24.09375,18.5625 c 2.95173,-0.39939 7.23355,0.56334 6.59375,4.43747 0,1.16668 0,2.33335 0,3.50003 -4.70833,0 -9.41667,0 -14.125,0 0.26747,-2.18532 0.15575,-4.45132 0.79978,-6.56478 1.54621,-1.78643 4.62057,-1.00752 6.73147,-1.37272 z m 47.625,0.0625 c 2.49295,0.0334 4.97928,0.24914 7.46878,0.375 0,2.33333 0,4.66666 0,7 -4.50073,0.18163 -9.00074,0.37956 -13.50003,0.59375 0.11239,-2.5327 -0.6382,-5.95951 2.13329,-7.30709 1.21664,-0.55469 2.58011,-0.63625 3.89796,-0.66166 z"
         style="fill:#000000;fill-opacity:1;stroke:none" />
      <path
         sodipodi:nodetypes="ccccccccc"
         id="path7452"
         d="m 440.49967,513.53453 c 6.19691,0.0961 12.44214,-0.1084 18.59375,0.71872 3.41656,1.10857 4.14654,5.18373 5.40965,8.09502 0.52164,1.72563 2.54759,5.25371 -0.86435,4.10661 -6.63747,-0.71081 -13.29833,-1.19074 -19.97885,-1.10301 -8.7286,0.0737 -17.49692,0.0324 -26.17514,1.06478 -4.64971,1.72159 -0.89681,-4.27319 -0.36006,-6.25715 1.07241,-2.79748 2.86731,-6.28901 6.37389,-6.14963 5.65285,-0.44598 11.33381,-0.44591 17.00111,-0.47534 z"
         style="fill:#ffffff;fill-opacity:1;stroke:none" />
    </g>
    <g
       id="g5391"
       transform="matrix(1,0,0,1.0008721,0,-5.9788589)">
      <path
         sodipodi:nodetypes="csccscsssccccccccccssccccsccsccc"
         id="path4560"
         d="m 137.48734,536.06941 c 0,0 -1.59813,0.0311 -3.50465,1.88875 -0.57633,0.56127 -1.18737,1.07122 -1.2685,1.97706 -0.16745,1.38941 0.12475,1.79043 0.0868,2.09217 0,0 -0.19254,-0.0144 0.34764,0.0227 1.34454,0.093 1.62168,-0.63358 1.62168,-0.63358 0,0 0.15571,-0.81672 0.83047,-1.61062 0.36136,-0.42542 0.80871,0.0409 0.74143,0.41062 -0.0673,0.36962 0.25482,1.38553 -0.13458,1.60108 -1.48285,0.82085 -1.26858,3.0565 -1.26858,3.0565 l -0.38562,2.30744 0.011,1.72882 1.0251,0.22493 0.85045,-0.23301 1.53083,-3.39308 -0.42238,-1.89676 0.46792,-0.12941 c 1.29483,1.86717 1.86578,2.73292 1.62865,2.48077 l 1.16298,2.81059 c 0,0 0.75666,0.34733 1.29684,0.0596 0.54019,-0.28764 0.90111,-0.32192 0.93932,-0.95014 0.0368,-0.60441 -1.31006,-3.27525 -1.31006,-3.27525 l -0.40373,-5.95315 0.8087,0.65653 0,2.0117 c 0,0 -0.0405,0.62959 1.07787,0.61593 0.96512,-0.0118 1.21995,-0.27096 1.21995,-0.27096 l 0,-2.79727 c 0,0 -2.33893,-2.87506 -4.25294,-2.92554 -1.07974,-0.0285 -2.69655,0.12335 -2.69655,0.12335 l -4e-5,1.7e-4 0,2e-5 z"
         style="stroke:#ffffff;stroke-width:0.48625532" />
      <ellipse
         d="m 48.363,23.889 c 0,2.09095 -1.816381,3.786 -4.057,3.786 -2.24062,0 -4.057,-1.69505 -4.057,-3.786 0,-2.09095 1.81638,-3.786 4.057,-3.786 2.240619,0 4.057,1.69505 4.057,3.786 z"
         id="ellipse4562"
         ry="3.786"
         rx="4.0570002"
         cy="23.889"
         cx="44.306"
         sodipodi:cx="44.306"
         sodipodi:cy="23.889"
         sodipodi:rx="4.0570002"
         sodipodi:ry="3.786"
         transform="matrix(0.6230486,0,0,0.37949563,109.54704,525.48452)" />
    </g>
  </g>
</svg>
